<?xml version="1.0" encoding="UTF-8"?>
<!DOCTYPE svg PUBLIC "-//W3C//DTD SVG 1.1//EN" "http://www.w3.org/Graphics/SVG/1.1/DTD/svg11.dtd">
<!-- Creator: CorelDRAW -->
<svg xmlns="http://www.w3.org/2000/svg" xml:space="preserve" width="6.82666in" height="6.82666in" style="shape-rendering:geometricPrecision; text-rendering:geometricPrecision; image-rendering:optimizeQuality; fill-rule:evenodd; clip-rule:evenodd"
viewBox="0 0 6.82666 6.82666"
 xmlns:xlink="http://www.w3.org/1999/xlink">
 <defs>
  <style type="text/css">
   <![CDATA[
    .fil0 {fill:#C0CA33}
    .fil1 {fill:#FFFFFE}
    .fil2 {fill:#FFFFFE;fill-rule:nonzero}
   ]]>
  </style>
 </defs>
 <g id="Layer_x0020_1">
  <metadata id="CorelCorpID_0Corel-Layer"/>
  <rect class="fil0" width="6.82666" height="6.82666" rx="0.853335" ry="0.853335"/>
  <g id="_213228520">
   <path id="_213228736" class="fil1" d="M1.6043 0.917504l4.34561 0 0.106669 0 0 0.106669 0 4.34561 0 0.0689331 0 0.0377362 -0.00151575 0c-0.0091811,0.114504 -0.0597402,0.217744 -0.136594,0.294598 -0.0852126,0.0852126 -0.202854,0.13811 -0.332335,0.13811l-3.93701e-006 0 0 -0.000417323 -4.32571 -7.87402e-006c-0.00660236,0.000275591 -0.0132283,0.000425197 -0.0198937,0.000425197l-3.93701e-006 0c-0.12948,0 -0.247122,-0.0528976 -0.332335,-0.13811 -0.0852126,-0.0852126 -0.13811,-0.202854 -0.13811,-0.332335l0 -3.68956c0,-0.0589094 0.0477598,-0.106669 0.106669,-0.106669 0.0589094,0 0.106669,0.0477598 0.106669,0.106669l0 3.68956c0,0.0705945 0.0289606,0.134854 0.0756063,0.1815 0.0466457,0.0466457 0.110906,0.0756063 0.1815,0.0756063l3.93701e-006 0c0.0705945,0 0.134854,-0.0289606 0.1815,-0.0756063 0.0466457,-0.0466457 0.0756063,-0.110906 0.0756063,-0.1815l0 -0.0689331 0 -4.34561 0 -0.106669 0.106669 0zm0.519472 0.51165l1.49333 0 0.106669 0 0 0.106669 0 1.28 0 0.106669 -0.106669 0 -1.49333 0 -0.106669 0 0 -0.106669 0 -1.28 0 -0.106669 0.106669 0zm-0.106665 3.1575l3.52 0 0 0.213339 -3.52 0 0 -0.213339zm2.17237 -3.11244l0.115933 0 0 0.364417c0,0.0475748 -0.00429134,0.0842992 -0.0126024,0.109898 -0.0112559,0.0335079 -0.031626,0.0604449 -0.0612441,0.080685 -0.029622,0.0203701 -0.068622,0.0304252 -0.117008,0.0304252 -0.0568268,0 -0.10052,-0.015815 -0.131209,-0.0477126 -0.0305591,-0.0317677 -0.0461063,-0.0784055 -0.0462402,-0.139921l0.1095 -0.0126024c0.00134252,0.0329724 0.00616535,0.0562953 0.0144724,0.0699606 0.0125984,0.0206417 0.0317677,0.0309606 0.0573661,0.0309606 0.0258622,0 0.0442283,-0.00737008 0.0549488,-0.0222441 0.0107244,-0.0147441 0.0160827,-0.0454409 0.0160827,-0.0920787l0 -0.371787zm0.216051 0.29137c0,-0.0587008 0.00870866,-0.10789 0.0262677,-0.147697 0.0131339,-0.0292126 0.0309606,-0.0556181 0.0536102,-0.078937 0.0226496,-0.023189 0.0474449,-0.0404764 0.0743858,-0.0517362 0.0359173,-0.0152795 0.0771969,-0.0227835 0.124106,-0.0227835 0.0848386,0 0.152654,0.0262677 0.203587,0.0789409 0.0509291,0.0525354 0.0763937,0.125713 0.0763937,0.219402 0,0.0930118 -0.0253346,0.165654 -0.0758583,0.218193 -0.0505276,0.0524016 -0.118079,0.0786732 -0.202516,0.0786732 -0.0856378,0 -0.153728,-0.0261378 -0.204256,-0.0782717 -0.0505236,-0.0522677 -0.0757205,-0.12424 -0.0757205,-0.215783zm0.119685 -0.00388583c0,0.0651378 0.0151417,0.114594 0.0451614,0.148236 0.0301614,0.0336378 0.0683583,0.0503898 0.114728,0.0503898 0.0462402,0 0.0843031,-0.0166181 0.114055,-0.050126 0.029622,-0.0333701 0.0445,-0.0833622 0.0445,-0.150106 0,-0.0659449 -0.0144764,-0.11513 -0.0432953,-0.147697 -0.0289449,-0.032437 -0.0674134,-0.0486535 -0.11526,-0.0486535 -0.0479764,0 -0.0865787,0.0164882 -0.115933,0.0493189 -0.0292165,0.0328386 -0.0439567,0.0822992 -0.0439567,0.148638zm0.529665 -0.287484l0.230126 0c0.0455669,0 0.0796102,0.00187795 0.101996,0.00576378 0.0223819,0.00375197 0.0423504,0.0116614 0.0600394,0.0237244 0.0176929,0.0120591 0.0323031,0.0280079 0.0440984,0.0481142 0.0117913,0.0199685 0.017689,0.0424843 0.017689,0.0672795 0,0.026937 -0.00724016,0.0517362 -0.0217126,0.074252 -0.0146063,0.0225157 -0.034311,0.0394016 -0.0591024,0.0506614 0.0349764,0.010185 0.0620512,0.0276102 0.080815,0.0521378 0.0188976,0.0246575 0.0282795,0.0536063 0.0282795,0.0868425 0,0.0261378 -0.0060315,0.0516024 -0.0182283,0.0763976 -0.0121969,0.0246614 -0.028815,0.0444961 -0.0498583,0.0592362 -0.0210394,0.0147441 -0.0470433,0.0238583 -0.0780039,0.0273465 -0.0192992,0.00200787 -0.0660748,0.00335039 -0.140193,0.00388583l-0.195945 0 0 -0.575642zm0.116335 0.0958307l0 0.133083 0.0761299 0c0.0452992,0 0.0734488,-0.000669291 0.0844331,-0.00201181 0.0198386,-0.00227559 0.0355197,-0.00911024 0.0469134,-0.0205039 0.0113898,-0.0113898 0.0170197,-0.0263976 0.0170197,-0.0450276 0,-0.0178307 -0.00482283,-0.0323031 -0.0146063,-0.0434291 -0.00992126,-0.011126 -0.0245276,-0.0178228 -0.0438307,-0.0201024 -0.0115236,-0.00134252 -0.0446299,-0.00200787 -0.099315,-0.00200787l-0.0667441 0zm0 0.228913l0 0.153862 0.107492 0c0.0419488,0 0.0684882,-0.0010748 0.0797441,-0.00348425 0.0172913,-0.00308268 0.0313622,-0.0108583 0.0422165,-0.0229173 0.0108583,-0.0121969 0.0163543,-0.0285512 0.0163543,-0.0489213 0,-0.0172874 -0.0042874,-0.0318976 -0.0126024,-0.0439567 -0.00844094,-0.0120669 -0.0205039,-0.0209134 -0.0363189,-0.0264055 -0.015811,-0.00549606 -0.0502598,-0.00817717 -0.103067,-0.00817717l-0.0938189 0zm-3.15411 2.19019l3.52 0 0 0.213339 -3.52 0 0 -0.213339zm0 -0.639984l3.52 0 0 0.213339 -3.52 0 0 -0.213339zm1.92 -1.17335l1.6 0 0 0.213339 -1.6 0 0 -0.213339zm0 0.533339l1.6 0 0 0.213339 -1.6 0 0 -0.213339z"/>
   <path id="_213228544" class="fil2" d="M0.876748 1.6425c-0.0589094,0 -0.106669,0.0477598 -0.106669,0.106669 0,0.0589094 0.0477598,0.106669 0.106669,0.106669l0.67063 0c0.0589094,0 0.106669,-0.0477598 0.106669,-0.106669 0,-0.0589094 -0.0477598,-0.106669 -0.106669,-0.106669l-0.67063 0z"/>
  </g>
 </g>
</svg>
